<mxfile host="app.diagrams.net" modified="2024-02-03T18:04:19.037Z" agent="Mozilla/5.0 (Windows NT 10.0; Win64; x64) AppleWebKit/537.36 (KHTML, like Gecko) Chrome/121.0.0.0 Safari/537.36" version="23.1.1" etag="MYwBEdSN1DwE-XVc4Hle" type="github">
  <diagram name="Trang-1" id="NiO53fh0ujET66lMJ6iC">
    <mxGraphModel>
      <root>
        <mxCell id="0" />
        <mxCell id="1" parent="0" />
      </root>
    </mxGraphModel>
  </diagram>
</mxfile>
